<mxfile host="app.diagrams.net" modified="2024-05-21T12:00:00.000Z" agent="5.0 (Windows)" etag="abc12345" version="24.4.0" type="device">
  <diagram name="Page-1" id="dG9tYXN6Cg">
    <mxGraphModel dx="1426" dy="767" grid="1" gridSize="10" guides="1" tooltips="1" connect="1" arrows="1" fold="1" page="1" pageScale="1" pageWidth="850" pageHeight="1100" math="0" shadow="0">
      <root>
        <mxCell id="0" />
        <mxCell id="1" parent="0" />
        <mxCell id="2" value="Teacher" style="shape=umlActor;verticalLabelPosition=bottom;verticalAlign=top;html=1;outlineConnect=0;" vertex="1" parent="1">
          <mxGeometry x="120" y="320" width="30" height="60" as="geometry" />
        </mxCell>
        <mxCell id="3" value="Shiksha AI System" style="rounded=1;whiteSpace=wrap;html=1;arcSize=20;verticalAlign=top;align=center;" vertex="1" parent="1">
          <mxGeometry x="250" y="80" width="450" height="540" as="geometry" />
        </mxCell>
        <mxCell id="4" value="Generate Lesson Plan" style="ellipse;whiteSpace=wrap;html=1;align=center;" vertex="1" parent="3">
          <mxGeometry x="75" y="50" width="300" height="60" as="geometry" />
        </mxCell>
        <mxCell id="5" value="Generate Worksheets from Photo" style="ellipse;whiteSpace=wrap;html=1;align=center;" vertex="1" parent="3">
          <mxGeometry x="75" y="140" width="300" height="60" as="geometry" />
        </mxCell>
        <mxCell id="6" value="Create Visual Aids" style="ellipse;whiteSpace=wrap;html=1;align=center;" vertex="1" parent="3">
          <mxGeometry x="75" y="230" width="300" height="60" as="geometry" />
        </mxCell>
        <mxCell id="7" value="Query Knowledge Base" style="ellipse;whiteSpace=wrap;html=1;align=center;" vertex="1" parent="3">
          <mxGeometry x="75" y="320" width="300" height="60" as="geometry" />
        </mxCell>
        <mxCell id="8" value="Generate Local Content" style="ellipse;whiteSpace=wrap;html=1;align=center;" vertex="1" parent="3">
          <mxGeometry x="75" y="410" width="300" height="60" as="geometry" />
        </mxCell>
        <mxCell id="9" style="endArrow=classic;html=1;rounded=0;entryX=0;entryY=0.5;" edge="1" parent="1" source="2" target="4">
          <mxGeometry relative="1" as="geometry" />
        </mxCell>
        <mxCell id="10" style="endArrow=classic;html=1;rounded=0;entryX=0;entryY=0.5;" edge="1" parent="1" source="2" target="5">
          <mxGeometry relative="1" as="geometry" />
        </mxCell>
        <mxCell id="11" style="endArrow=classic;html=1;rounded=0;entryX=0;entryY=0.5;" edge="1" parent="1" source="2" target="6">
          <mxGeometry relative="1" as="geometry" />
        </mxCell>
        <mxCell id="12" style="endArrow=classic;html=1;rounded=0;entryX=0;entryY=0.5;" edge="1" parent="1" source="2" target="7">
          <mxGeometry relative="1" as="geometry" />
        </mxCell>
        <mxCell id="13" style="endArrow=classic;html=1;rounded=0;entryX=0;entryY=0.5;" edge="1" parent="1" source="2" target="8">
          <mxGeometry relative="1" as="geometry" />
        </mxCell>
      </root>
    </mxGraphModel>
  </diagram>
</mxfile>